<svg width="240" height="180" viewBox="0 0 240 180" fill="none" xmlns="http://www.w3.org/2000/svg">
  <g clip-path="url(#clip0_11_41)">
    <path d="M115.235 27.8306C113.772 26.1047 111.552 25.0953 109.171 25.0953H42.4146C40.0341 25.0953 37.8134 26.1047 36.3507 27.8306C34.888 29.5565 34.3265 31.8118 34.8395 33.9947L44.0864 73.5306C44.8601 76.7765 47.8043 79.0953 51.2232 79.0953H100.363C103.782 79.0953 106.726 76.7765 107.5 73.5306L116.747 33.9947C117.26 31.8118 116.698 29.5565 115.235 27.8306Z" fill="#F2F2F2"/>
    <path d="M203.235 100.831C201.772 99.1047 199.552 98.0953 197.171 98.0953H130.415C128.034 98.0953 125.813 99.1047 124.351 100.831C122.888 102.556 122.326 104.812 122.84 106.995L132.086 146.531C132.86 149.776 135.804 152.095 139.223 152.095H188.363C191.782 152.095 194.726 149.776 195.5 146.531L204.747 106.995C205.26 104.812 204.698 102.556 203.235 100.831Z" fill="#F2F2F2"/>
    <path d="M147 62.5953H85V119.595H147V62.5953Z" fill="#3F51B5"/>
    <path d="M138 71.5953H94V110.595H138V71.5953Z" fill="white"/>
    <path d="M75.7324 44.0953L75.7324 60.0953" stroke="#E53935" stroke-width="6" stroke-linecap="round"/>
    <path d="M75.7324 44.0953L75.7324 60.0953" stroke="#E53935" stroke-width="6" stroke-linecap="round" transform="rotate(90 75.7324 52.0953)"/>
    <path d="M115.732 121.595L115.732 137.595" stroke="#E53935" stroke-width="6" stroke-linecap="round"/>
    <path d="M115.732 121.595L115.732 137.595" stroke="#E53935" stroke-width="6" stroke-linecap="round" transform="rotate(90 115.732 129.595)"/>
    <path d="M116 90.5953C130.359 90.5953 142 78.9548 142 64.5953C142 50.2359 130.359 38.5953 116 38.5953C101.641 38.5953 90 50.2359 90 64.5953C90 78.9548 101.641 90.5953 116 90.5953Z" fill="#E53935"/>
    <path d="M111.5 79.5953L120.5 49.5953" stroke="white" stroke-width="4" stroke-linecap="round"/>
    <path d="M103.344 68.2513L128.656 60.9393" stroke="white" stroke-width="4" stroke-linecap="round"/>
  </g>
  <defs>
    <clipPath id="clip0_11_41">
      <rect width="240" height="180" fill="white"/>
    </clipPath>
  </defs>
</svg> 